<?xml version="1.0" encoding="UTF-8" standalone="no" ?>
<!DOCTYPE svg PUBLIC "-//W3C//DTD SVG 1.1//EN" "http://www.w3.org/Graphics/SVG/1.1/DTD/svg11.dtd">
<svg xmlns="http://www.w3.org/2000/svg" xmlns:xlink="http://www.w3.org/1999/xlink" version="1.1" width="50" height="50" viewBox="0 0 50 50" xml:space="preserve">
<desc>Created with Fabric.js 5.3.0</desc>
<defs>
</defs>
<g transform="matrix(5.5995631512 0 0 5.5995631512 14.9519798922 21.5247840111)" id="zgd5YilleqoyQtgW3NVDE"  >
<path style="stroke: rgb(16,100,48); stroke-width: 0; stroke-dasharray: none; stroke-linecap: butt; stroke-dashoffset: 0; stroke-linejoin: miter; stroke-miterlimit: 4; fill: rgb(140,140,140); fill-rule: nonzero; opacity: 1;"  transform=" translate(0, 0)" d="M 0 -1.60221 C 0.88442 -1.60221 1.60221 -0.8844199999999999 1.60221 0 C 1.60221 0.88442 0.8844199999999999 1.60221 0 1.60221 C -0.88442 1.60221 -1.60221 0.8844199999999999 -1.60221 0 C -1.60221 -0.88442 -0.8844199999999999 -1.60221 0 -1.60221 z" stroke-linecap="round" />
</g>
<g transform="matrix(2.8938800669 0 0 3.3349284936 22.3311504251 17.2970833412)" id="ntfcR0xDYVI8M9hv-XN18"  >
<path style="stroke: rgb(40,96,203); stroke-width: 0; stroke-dasharray: none; stroke-linecap: butt; stroke-dashoffset: 0; stroke-linejoin: miter; stroke-miterlimit: 4; fill: rgb(140,140,140); fill-rule: nonzero; opacity: 1;"  transform=" translate(0, 0)" d="M 0 -2.76243 C 1.52486 -2.76243 2.76243 -1.52486 2.76243 0 C 2.76243 1.52486 1.52486 2.76243 0 2.76243 C -1.52486 2.76243 -2.76243 1.52486 -2.76243 0 C -2.76243 -1.52486 -1.52486 -2.76243 0 -2.76243 z" stroke-linecap="round" />
</g>
<g transform="matrix(3.0896733385 0 0 3.0896733385 34.9461584977 27.4972050476)" id="CqlchC6HlcCipqsY3sQgz"  >
<path style="stroke: rgb(208,134,205); stroke-width: 0; stroke-dasharray: none; stroke-linecap: butt; stroke-dashoffset: 0; stroke-linejoin: miter; stroke-miterlimit: 4; fill: rgb(140,140,140); fill-rule: nonzero; opacity: 1;"  transform=" translate(0, 0)" d="M 0 -2.76243 C 1.52486 -2.76243 2.76243 -1.52486 2.76243 0 C 2.76243 1.52486 1.52486 2.76243 0 2.76243 C -1.52486 2.76243 -2.76243 1.52486 -2.76243 0 C -2.76243 -1.52486 -1.52486 -2.76243 0 -2.76243 z" stroke-linecap="round" />
</g>
<g transform="matrix(3.3206305669 -0.1159589746 0.1159589746 3.3206305669 28.3281433342 32.6982306885)" id="ravoGcjTge2zzAQVzZid6"  >
<path style="stroke: rgb(166,214,210); stroke-width: 0; stroke-dasharray: none; stroke-linecap: butt; stroke-dashoffset: 0; stroke-linejoin: miter; stroke-miterlimit: 4; fill: rgb(140,140,140); fill-rule: nonzero; opacity: 1;"  transform=" translate(0, 0)" d="M 0 -2.76243 C 1.52486 -2.76243 2.76243 -1.52486 2.76243 0 C 2.76243 1.52486 1.52486 2.76243 0 2.76243 C -1.52486 2.76243 -2.76243 1.52486 -2.76243 0 C -2.76243 -1.52486 -1.52486 -2.76243 0 -2.76243 z" stroke-linecap="round" />
</g>
<g transform="matrix(3.4730554835 0 0 3.4730554835 18.4859620487 31.2087511231)" id="s7yGvaFo0IszLhDffIcbJ"  >
<path style="stroke: rgb(180,180,28); stroke-width: 0; stroke-dasharray: none; stroke-linecap: butt; stroke-dashoffset: 0; stroke-linejoin: miter; stroke-miterlimit: 4; fill: rgb(140,140,140); fill-rule: nonzero; opacity: 1;"  transform=" translate(0, 0)" d="M 0 -2.76243 C 1.52486 -2.76243 2.76243 -1.52486 2.76243 0 C 2.76243 1.52486 1.52486 2.76243 0 2.76243 C -1.52486 2.76243 -2.76243 1.52486 -2.76243 0 C -2.76243 -1.52486 -1.52486 -2.76243 0 -2.76243 z" stroke-linecap="round" />
</g>
<g transform="matrix(3.0180303805 0 0 3.0180303805 32.2607687706 18.9621958253)" id="g_ggX1CSkBhDE9weknHUx"  >
<path style="stroke: rgb(143,245,152); stroke-width: 0; stroke-dasharray: none; stroke-linecap: butt; stroke-dashoffset: 0; stroke-linejoin: miter; stroke-miterlimit: 4; fill: rgb(140,140,140); fill-rule: nonzero; opacity: 1;"  transform=" translate(0, 0)" d="M 0 -2.76243 C 1.52486 -2.76243 2.76243 -1.52486 2.76243 0 C 2.76243 1.52486 1.52486 2.76243 0 2.76243 C -1.52486 2.76243 -2.76243 1.52486 -2.76243 0 C -2.76243 -1.52486 -1.52486 -2.76243 0 -2.76243 z" stroke-linecap="round" />
</g>
</svg>